<?xml version="1.0" encoding="UTF-8"?>
<svg id="Layer_1" data-name="Layer 1" xmlns="http://www.w3.org/2000/svg" viewBox="0 0 532.96 532.96">
  <defs>
    <style>
      .cls-1 {
        fill: #f8f8f8;
      }

      .cls-1, .cls-2, .cls-3, .cls-4, .cls-5, .cls-6, .cls-7 {
        stroke-width: 0px;
      }

      .cls-2 {
        fill: #2b3842;
      }

      .cls-3 {
        fill: none;
      }

      .cls-4 {
        fill: #16191e;
      }

      .cls-5 {
        fill: #f7d454;
      }

      .cls-6 {
        fill: #c46c29;
      }

      .cls-7 {
        fill: #3c5461;
      }
    </style>
  </defs>
  <rect class="cls-3" width="532.96" height="532.96"/>
  <g>
    <path class="cls-2" d="M373.25,133.95c12.92,8.97,20.97,21.85,27.91,35.43,10.7,20.96,14.38,43.25,11.13,66.57-.88,6.33-2.01,12.72-5.1,18.41-3.3,6.08-.83,10.49,2.95,15.25,8.29,10.42,12.62,22.8,16,35.45,2.13,7.96,4.55,15.96,4.14,24.39.01,7.97.08,15.94,0,23.9-.01,1.33.96,3.87-2.18,3.13-5.49-1.29-10-4.23-13.6-8.52-.69-.82-.69-2.55-2.22-2.11-1.45.42-.84,1.97-.92,3.05-.57,7.55-.48,15.16-3.82,22.3-1.63,3.47-3.45,3.65-6.11,1.5-3.15-2.55-4.8-6.26-7.24-9.35-3.75-4.75-5.05-10.87-8.77-15.8-1.56,1.55-1.36,3.25-.81,4.44,3.75,8.2,6.55,16.93,13.46,23.38,6.44,6,12.22,4.81,15.11-3.52,1.52-4.39,2.31-8.96,2.14-13.66-.1-2.69.82-3.39,3.15-1.48,1.77,1.45,3.61,3.52,5.98,3.26,5.57-.62,6.58,2.16,5.8,6.72-.04,11.88-3.24,23.19-6.57,34.42-3.49,11.76-8.52,22.9-15.06,33.33-.61.98-1.02,2.11-2.27,2.5-3.88,1.82-6.12,5.47-9.14,8.24-1.84,1.69-3.78,2.34-5.87,1.37-2.03-.94-3.34-2.72-3.03-5.22.33-2.62.81-5.23.99-7.86,1.28-18.55,1.06-37.13.99-55.71,0-1.07.64-2.37-.83-3.38-.08,5.76-1.2,11.25-1.2,16.91,0,10.6-.32,21.21-1.04,31.78-.28,4.11-.9,8.21-.87,12.36.01,1.93-.77,3.54-2.24,4.81,0,0,.06-.09.06-.1.17-1.19-.22-2.13-.8-3.22-5.9-11.06-14.12-20.87-17.91-33.05-.34-1.1-.95-1.67-2.05-1.8-.08-.65.04-1.42-.27-1.94-11.46-19.16-16.72-40.57-23.12-61.66-7.01-23.13-20.93-41.25-43.28-51.95-10.29-4.93-20.17-5.42-28.6,3.92-1.01,1.12-1.63,1.9-3.36.16-8.43-8.54-16.22-9.9-27.53-4.55-23.54,11.13-38.21,29.75-44.73,54.7-5.29,20.25-11.05,40.25-22.04,58.32-.48.79-.49,1.87-.71,2.81-1.59.93-1.83,2.64-2.52,4.14-2.68,5.87-4.62,12.65-9.48,16.67-3.29,2.72-3.16,5.14-3.36,8.24,0,0,0-.02,0-.02-4.38,1.38-4.12,6.24-7.65,10-.62-21.7-2.8-42.29-3.29-63.04-.85,12.04-1.24,24.02-.6,36.05.56,10.67,2.04,21.31,1.59,32.03,0,0,.04-.06.04-.06-.35.35-.71.7-1.06,1.05,0,0,.06-.04.06-.04-4.49.9-7.7-1.03-10.6-4.31-1.88-2.13-3.52-4.7-6.47-5.68-5.99-7.21-9.33-15.82-12.68-24.37-4.9-12.5-8.66-25.33-9.59-38.83-.02-7.23-1.02-14.77,9.6-16.06,2.51-.3,3.38-1.61,3.96,1.87.81,4.87.72,9.89,2.59,14.6,1.35,3.39,3.72,5.43,7.2,4.6,2.62-.62,5.34-1.61,7.49-3.68,5.49-5.28,9.12-11.84,11.96-18.67,1.48-3.56,3.58-7.36,2.87-12.65-3.88,3.61-4.41,8.05-6.26,11.7-3,5.95-6.39,11.63-11.25,16.23-3.83,3.61-5.53,2.98-7.49-1.68-2.9-6.9-2.88-14.06-2.49-21.3.05-.98.39-2.24-.52-2.78-1.34-.79-2.13.51-2.78,1.39-2.6,3.54-6.23,5.88-9.76,8.29-1.29.87-2.47,2.57-4.31,2.05-1.99-.57-1.13-2.95-2.27-4.93-.15,1.71-.23,2.68-.31,3.66-1.5-3.69-.84-7.56-.77-11.34.48-26.5,6.02-51.61,20.77-74.15.27-.41.36-1.02.72-1.3,7.34-5.73,5.54-12.14,2.8-19.76-5.38-14.97-6.58-30.58-4.42-46.49,1.96-14.49,6.53-28.19,13.51-40.76,6.88-12.39,16.5-23.05,27.68-31.93,3.38-2.69,2.51-4.41.62-6.82-4.96-6.27-8.06-13.45-11.23-22.1,5.8,4.91,10.15,9.65,16.14,12.12,1.55.26,2.5,1.27,3.4,2.48,8.82,11.9,19.68,21.68,31.42,30.61,1.84,1.4,4.89,1.66,5.4,4.65-2.21.1-4.42.2-6.63.3-10.19-3.2-20.11-7.2-28.34-14.05-3.52-2.93-5.56-2.76-8.82-.29-7.86,5.95-16.51,10.74-21.67,19.88-4.89,8.66-10.7,16.49-13.55,26.5-2.67,9.37-2.85,18.52-2.96,27.9-.2,16.53,5.62,31.29,15.37,44.07,11.11,14.56,26.11,24.34,44.12,28.64,14.35,3.43,28.69,2.55,42.5-2.83,10.9-4.25,20.89-10.03,28.49-19.23,1.3,2.12,3.41,3.82,3.48,6.59-.49,3.91,2.67,6.52,3.62,9.95.44,1.59,2.46,1.64,3.87.97,1.27-.61,3.93-.13,3.72-1.66-.75-5.41,3.58-8.65,4.95-13.08,3.96,2.71,7.83,5.57,11.89,8.12,17.05,10.67,35.33,15.71,55.53,11.96,27.44-5.09,46.31-21.07,57.82-45.94,5.93-12.82,6.56-26.45,4.63-40.39-3.76-27.1-17.19-47.72-40.53-62.01-2.11-1.29-3.82-1.38-5.84.28-7.16,5.85-15.35,9.81-24.22,12.32-2.08.59-1.8,1.43-1.12,2.77-2.79-.29-5.57-.57-8.36-.86-.24-.58-.71-1.21.05-1.72,14.53-9.56,26.89-21.45,37.66-35.03,4.64,1.96,6.24-3.13,10.57-4.77-2.18,4.64-3.62,8.56-5.75,12.06-4.18,6.85-3.56,8.91,4.36,11.89Z"/>
    <path class="cls-7" d="M364.07,114.77c-10.77,13.58-23.13,25.47-37.66,35.03-.77.5-.29,1.14-.05,1.72-1.07.38-2.29.56-3.2,1.19-8.46,5.86-17.09,11.5-25.22,17.78-9.69,7.47-17.59,16.54-22.19,28.13-4.3,10.84-4.33,21.77-.96,32.81-.94.05-1.68.06-2.63-.67-5.2-3.95-8.62-3.41-12.88,1.67-.73.87-1.62,1.59-2.44,2.38,8.9-20.38,4.52-38.37-10.14-54.3-10.98-11.93-25.18-19.7-38.27-28.89-.51-2.99-3.56-3.25-5.4-4.65-11.74-8.93-22.61-18.71-31.42-30.61-.9-1.21-1.85-2.22-3.4-2.48-.16-1.13.04-2.51-.54-3.36-7.49-10.92-7.39-23.3-6.81-35.68.17-3.54,1.62-7.02,2.5-10.52.23-.91.13-2.13,1.51-2.23,1.38-.1,2.1.74,2.5,1.96,3.21,9.61,8.86,17.87,14.98,25.74,8.21,10.55,16.97,20.66,28.31,28.11,1.53,3.45,4.76,5.31,7.42,7.65,17.5,15.34,32.6,32.56,42.22,53.99,2.51,5.59,4.34,11.49,6.8,18.14,3.94-10.04,6.76-19.47,11.66-28.2,9.98-17.8,23.84-32.14,38.56-45.86,1.91-1.78,4.52-2.86,5.37-5.64,2.67-.04,5.08-.29,7.16-2.57,8.99-9.87,20-17.92,27.15-29.41,3.2-5.14,8.04-9.76,7.49-16.65,1.46-1.52.25-3.79,1.51-5.37,1.91-.4,2.52,1.97,4.24,1.98.2.28.24.59.13.92.72,3.02-1.76,6.68,1.85,9.12,0,0,.03.1.03.1.97,8.32-3.32,16.23-1.9,24.58.54,1.97-1.24,3.34-1.32,5.15-5.13,1.08-3.92,5.64-4.94,8.97Z"/>
    <path class="cls-4" d="M322.69,117.96c-.84,2.78-3.45,3.86-5.37,5.64-14.72,13.71-28.58,28.06-38.56,45.86-4.89,8.73-7.71,18.16-11.66,28.2-2.47-6.64-4.29-12.54-6.8-18.14-9.63-21.43-24.73-38.65-42.22-53.99-2.67-2.34-5.89-4.19-7.42-7.65,33.07-18.73,67.18-19.39,102.07-5.77,2.76,1.08,5.27,2.78,7.88,4.19.69.55,1.38,1.1,2.07,1.65Z"/>
    <path class="cls-4" d="M154.42,430.95c.2-3.1.06-5.51,3.36-8.24,4.86-4.02,6.8-10.8,9.48-16.67.69-1.5.92-3.21,2.52-4.14.52.38,1.21.65,1.54,1.16,10.5,16.44,24.81,28.7,41.7,38.18,1.07.6,2.62.95,2.43,2.74-6.94-.02-10.09,2.55-12.2,9.94-5.85.43-10.15-3.3-14.82-5.77-9.23-4.86-17.57-11.11-25.42-17.96-4.91-4.29-4.77-4.45-8.58.76Z"/>
    <path class="cls-4" d="M363.41,402.08c1.1.13,1.7.7,2.05,1.8,3.79,12.18,12.01,22,17.91,33.05.58,1.09.97,2.04.8,3.22-3.5-2.35-4.57-6.32-6.44-9.74-2.55-4.66-3.24-4.82-7.13-1.12-9.61,9.11-20.69,16.09-32.43,22.07-2.03,1.03-4.37,1.47-6.57,2.18-1.91-6.53-7.34-9.85-14.5-8.71-.68-1.91,1.12-2.01,2.03-2.52,17.83-10.06,32.77-23.28,44.29-40.24Z"/>
    <path class="cls-5" d="M203.24,453.92c2.1-7.39,5.26-9.96,12.2-9.94,7.81,5.07,16.67,4.95,25.47,5.22.92.03,1.31.87,1.55,1.68,4.53,4.66,5.59,9.95,2.85,15.91-1.6,1.86-3.2,3.71-5.32,6.17-.57-2.12-.95-3.78-1.48-5.39-.46-1.39-.78-3.56-1.74-3.95-6.42-2.56-4.09-6.48-1.96-10.45.46-.86,1.36-1.85.05-2.46-1.33-.62-1.55.71-1.87,1.63-2,5.75-4.47,11.35-5.69,17.36-.22,1.1-.23,2.57-1.63,2.73-1.43.16-1.62-1.42-2.24-2.33-3.93-5.8-3.6-12.14-2.1-19.07-3.03,1.52-5.94,2.47-4.63,6.49.24.75-.11,1-.82,1.39-6.22,3.38-6.2,3.41-6.82,9.87-4.64-4.36-5.64-9.44-5.82-14.87Z"/>
    <path class="cls-4" d="M245.32,466.79c2.73-5.96,1.67-11.24-2.85-15.9,7.57.4,15.15.74,22.71,1.21,8.93.55,17.72-1.39,26.62-1.26-3.01,4.31-4.19,8.93-2.36,14.06-6.14,2.58-12.68,2.03-19.08,2.16-8.34.17-16.7-.15-25.04-.26Z"/>
    <path class="cls-5" d="M289.44,464.89c-1.83-5.12-.65-9.74,2.36-14.06,3.25-.35,6.59-1.14,9.49-2.15,4.35-1.52,9.02-.79,13.13-2.81,1.06-.17,2.51.66,2.95-1.13l-.28.09c7.16-1.14,12.6,2.18,14.5,8.71-.19,5.21-.05,10.52-5.26,15.33,1.23-6.12-.78-9.03-6.17-9.38-1.79-.12-1.9-1.49-1.36-2.97,1.13-3.11-.69-4.23-3.32-4.75-.48-.52-1.08-1.66-1.58-1.13-.6.64.45,1.26,1.08,1.7,2.11,5.02,1.73,9.97-.33,14.9-.6,1.44-1.24,2.64-3.1,2.72-2.01.08-2.43-1.35-2.98-2.74-1.74-4.45-3.52-8.88-5.19-13.35-.72-1.93-1.65-3.24-4.02-2.49.14,1.68,1.67,2.38,2.46,3.57,3.11,4.66,3.06,5.11-2.05,6.83-2.16.73-2.48,2.53-2.92,4.23-.48,1.88-.65,3.84-1,6.11-3.51-1.42-4.37-4.87-6.41-7.23Z"/>
    <path class="cls-4" d="M430.24,366.7c.78-4.56-.23-7.34-5.8-6.72-2.37.27-4.21-1.8-5.98-3.26-2.32-1.91-3.25-1.22-3.15,1.48.17,4.7-.62,9.27-2.14,13.66-2.88,8.33-8.67,9.52-15.11,3.52-6.91-6.45-9.71-15.18-13.46-23.38-.55-1.19-.75-2.89.81-4.44,3.72,4.93,5.02,11.05,8.77,15.8,2.44,3.09,4.09,6.81,7.24,9.35,2.65,2.15,4.48,1.97,6.11-1.5,3.34-7.14,3.25-14.75,3.82-22.3.08-1.08-.53-2.63.92-3.05,1.53-.44,1.53,1.29,2.22,2.11,3.6,4.29,8.11,7.23,13.6,8.52,3.14.74,2.16-1.8,2.18-3.13.08-7.97.02-15.94,0-23.9,1.9,9.11,1.14,18.32.9,27.49-.08,3.24.22,6.6-.95,9.76Z"/>
    <path class="cls-4" d="M102.39,356.39c.08-.98.17-1.95.31-3.66,1.14,1.98.28,4.36,2.27,4.93,1.84.52,3.03-1.17,4.31-2.05,3.53-2.4,7.16-4.75,9.76-8.29.65-.88,1.44-2.18,2.78-1.39.91.54.57,1.8.52,2.78-.4,7.24-.41,14.4,2.49,21.3,1.96,4.66,3.66,5.3,7.49,1.68,4.87-4.6,8.25-10.27,11.25-16.23,1.84-3.65,2.38-8.09,6.26-11.7.72,5.29-1.39,9.09-2.87,12.65-2.84,6.83-6.47,13.38-11.96,18.67-2.15,2.07-4.87,3.06-7.49,3.68-3.48.82-5.85-1.21-7.2-4.6-1.87-4.71-1.78-9.74-2.59-14.6-.58-3.48-1.45-2.17-3.96-1.87-10.63,1.28-9.63,8.82-9.6,16.06-2.15-5.63-1.58-11.53-1.76-17.35Z"/>
    <path class="cls-4" d="M384.11,440.25c1.47-1.27,2.25-2.88,2.24-4.81-.03-4.15.59-8.25.87-12.36.72-10.57,1.04-21.19,1.04-31.78,0-5.66,1.12-11.15,1.2-16.91,1.48,1.01.83,2.31.83,3.38.07,18.58.29,37.16-.99,55.71-.18,2.63-.66,5.24-.99,7.86-.32,2.5.99,4.29,3.03,5.22,2.09.96,4.03.32,5.87-1.37,3.02-2.77,5.26-6.42,9.14-8.24-.03.34-.14.65-.33.93-.25.3-.5.6-.75.91-1.28,3.34-4.13,5.62-6.58,7.74-5.78,5-11.29,2.4-14.57-6.28Z"/>
    <path class="cls-4" d="M144.46,445.97c.46-10.72-1.02-21.36-1.59-32.03-.63-12.03-.24-24.01.6-36.05.49,20.74,2.67,41.34,3.29,63.04,3.53-3.76,3.27-8.62,7.65-10-2.13,5.8-4.59,11.38-9.96,15.04Z"/>
    <path class="cls-2" d="M322.69,117.96c-.69-.55-1.39-1.1-2.07-1.65,1.72.45,3.37,1.25,5.06-.34,12.37-11.65,25.55-22.57,33.33-38.23,1.48-2.97,3.63-5.61,5.48-8.41.55,6.9-4.29,11.51-7.49,16.65-7.15,11.48-18.16,19.54-27.15,29.41-2.07,2.28-4.48,2.52-7.16,2.57Z"/>
    <path class="cls-4" d="M126.43,436.93c2.95.98,4.59,3.55,6.47,5.68,2.9,3.28,6.11,5.21,10.6,4.31-3.34,3.48-6.56,2.95-9.8-.21-2.96-2.88-5.6-5.96-7.27-9.78Z"/>
    <path class="cls-2" d="M370.34,100.66c-1.42-8.35,2.87-16.26,1.9-24.58,1.79,8.38.8,16.55-1.9,24.58Z"/>
    <path class="cls-2" d="M370.23,65.94c-1.72-.01-2.33-2.38-4.24-1.98.37-1.46.11-4.19,1.66-3.95,3.07.49,2.34,3.63,2.58,5.93Z"/>
    <path class="cls-2" d="M372.2,75.98c-3.61-2.44-1.13-6.1-1.85-9.12,1.85,2.79,2.21,5.88,1.85,9.12Z"/>
    <path class="cls-4" d="M143.44,446.96c.35-.35.71-.7,1.06-1.05-.35.35-.71.7-1.06,1.05Z"/>
    <path class="cls-2" d="M405.26,438.79c.25-.3.5-.6.75-.91.1.59-.14.9-.75.91Z"/>
    <path class="cls-1" d="M314.42,445.87c-4.11,2.03-8.78,1.3-13.13,2.81-2.89,1.01-6.24,1.8-9.49,2.15-8.9-.14-17.7,1.8-26.62,1.26-7.57-.46-15.14-.81-22.71-1.21-.25-.81-.63-1.66-1.55-1.68-8.8-.27-17.66-.16-25.47-5.22.19-1.79-1.36-2.14-2.43-2.74-16.89-9.48-31.2-21.75-41.7-38.18-.32-.51-1.02-.78-1.54-1.16.23-.94.23-2.02.71-2.81,10.99-18.08,16.76-38.08,22.04-58.32,6.51-24.95,21.19-43.57,44.73-54.7,11.32-5.35,19.1-3.99,27.53,4.55,1.72,1.74,2.35.96,3.36-.16,8.43-9.34,18.31-8.84,28.6-3.92,22.35,10.7,36.26,28.82,43.28,51.95,6.39,21.09,11.66,42.5,23.12,61.66.31.52.19,1.29.27,1.94-11.53,16.96-26.46,30.18-44.29,40.24-.9.51-2.71.61-2.03,2.52,0,0,.28-.09.28-.09-1.59-1.21-2.25.02-2.94,1.13ZM253.45,323.16c.25.46,0,1.61,1.15.84.77,4.27,4.15,6.96,9.18,7.32,6.27.45,11.17-2.45,13.01-7.7-9.97,6.51-14.08,6.6-22.28.51-.39-.29-.78-.57-1.17-.86-.11-.1-.23-.19-.34-.29l.27-.25c.06.14.12.28.18.43ZM314.35,345.97l-.08.15.19-.09c.9,4.81,4.04,7.39,8.64,8.14,3.24.53,6.64.78,9.37-2.91-8.93,1.47-11.03.82-18.12-5.3ZM199.3,351.4l.03-.28-.11.17c7.27,6.01,17.02,3.08,19.31-5.8-7.39,6.48-8.3,6.76-19.23,5.91ZM254.5,371.03c-.22-.05-.26-.91-.66-.14l.76.02c1.11,4.7,5.04,8.33,9.79,9.03,4.66.69,8.6-1.06,11.45-6.19-8.86,5.97-15.4,3.11-21.33-2.72ZM254.44,344.96l-.14.15.25-.08c1.27,5.35,4.99,8.8,10.01,9.3,4.95.49,8.64-1.22,10.86-5.72-8.56,5.07-15.34,3.21-20.99-3.65ZM287.91,372.92c8.12,9.79,19.03,8.91,22.63-1.57-7.07,7.52-14.57,7.14-22.63,1.57ZM243.67,319.84c-6.47,7.68-13.46,10.06-22.94,5.27,7.65,8.7,18.42,6.08,22.94-5.27ZM306.94,347.66c-7.78,6.13-14.95,4.77-22-1.48,2.52,5.04,5.94,8.36,11.69,8.14,4.69-.18,8.43-2,10.31-6.66ZM224.92,347.06c7.26,9.6,17.97,9.17,22.6-1.73-7.66,7.84-14.95,7.39-22.6,1.73ZM289.11,322.21c5.36,9.63,15.4,11.08,21.65,2.16-8.61,5.55-15.26,3.11-21.65-2.16ZM245.76,372.54q-10.26,4.53-22.01,1.13c5.94,8.88,16.63,8.33,22.01-1.13Z"/>
    <path class="cls-1" d="M274.79,231.43c-3.36-11.05-3.34-21.98.97-32.82,4.6-11.59,12.5-20.66,22.19-28.13,8.14-6.28,16.77-11.92,25.22-17.78.91-.63,2.13-.8,3.2-1.19,2.79.29,5.57.57,8.36.86,1.76.45,3.53.88,5.29,1.34,23.35,6.17,39.07,25.25,41.82,50.76,2.28,21.17-10.44,43.65-30.92,53.57-21.51,10.42-42.13,8.15-61.59-5.54-2.21-2.07-4.42-4.14-6.63-6.22-1.4-5.62-5.1-10.01-7.91-14.88ZM352.58,208.66c.08-17.29-14.61-31.97-32.05-32.03-18.23-.06-33.18,15.15-33.26,33.85-.07,16.93,13.99,30.97,31.04,31,18.87.03,34.18-14.63,34.26-32.81Z"/>
    <path class="cls-1" d="M208.43,151.6c13.09,9.19,27.3,16.97,38.27,28.89,14.66,15.93,19.04,33.92,10.14,54.3-2.18,4.07-5.59,7.46-6.8,12.07-4.87,4.2-9.36,8.78-15.32,11.69-35.31,17.23-80.17-5.83-81.99-48.7-.85-19.88,7.1-36.11,23.33-48.02,7.67-5.63,16.6-8.07,25.74-9.95,2.21-.1,4.42-.2,6.63-.3ZM182.09,208.98c-.16,17.4,14.1,32.32,31.04,32.48,18.87.18,34.26-14.13,34.38-31.97.11-17.47-14.98-32.62-32.7-32.84-17.01-.21-32.56,15.15-32.71,32.33Z"/>
    <path class="cls-7" d="M201.79,151.9c-9.14,1.88-18.06,4.32-25.74,9.95-16.23,11.91-24.18,28.14-23.33,48.02,1.82,42.87,46.69,65.93,81.99,48.7,5.96-2.91,10.45-7.49,15.32-11.69,1.11,5.73,4.64,10.4,6.9,15.62-7.6,9.2-17.6,14.98-28.49,19.23-13.81,5.38-28.15,6.25-42.5,2.83-18.01-4.3-33.01-14.08-44.12-28.64-9.75-12.78-15.56-27.55-15.37-44.07.11-9.38.29-18.52,2.96-27.9,2.85-10.01,8.66-17.84,13.55-26.5,5.16-9.15,13.81-13.94,21.67-19.88,3.26-2.47,5.31-2.64,8.82.29,8.23,6.85,18.15,10.85,28.34,14.05Z"/>
    <path class="cls-7" d="M289.33,252.52c19.46,13.68,40.08,15.95,61.59,5.54,20.48-9.92,33.2-32.41,30.92-53.57-2.75-25.52-18.47-44.6-41.82-50.76-1.76-.46-3.52-.9-5.29-1.34-.68-1.35-.96-2.18,1.12-2.77,8.86-2.51,17.06-6.47,24.22-12.32,2.03-1.66,3.74-1.57,5.84-.28,23.34,14.29,36.77,34.91,40.53,62.01,1.93,13.94,1.3,27.56-4.63,40.39-11.5,24.88-30.38,40.85-57.82,45.94-20.19,3.75-38.48-1.3-55.53-11.96-4.07-2.54-7.93-5.4-11.89-8.12-.04-.58-.08-1.16-.12-1.74,2.76-.07,3.5-1.9,3.88-4.22,1.32-8.03,1.59-8.2,9-6.79Z"/>
    <path class="cls-5" d="M256.94,262.5c-2.26-5.22-5.79-9.89-6.9-15.62,1.21-4.62,4.62-8,6.8-12.08.81-.79,1.71-1.52,2.43-2.38,4.26-5.08,7.68-5.62,12.88-1.67.95.73,1.69.72,2.63.67,2.81,4.88,6.51,9.27,7.91,14.89-2.27,5.65-4.55,11.3-6.82,16.94-2.38,4.12-4.8,8.22-7.11,12.38-1.45,2.6-2.66,2.52-4.13.02-1.32-2.24-1.98-4.9-4.21-6.57-.07-2.77-2.18-4.47-3.48-6.59Z"/>
    <path class="cls-4" d="M260.42,269.09c2.22,1.66,2.89,4.33,4.21,6.57,1.47,2.49,2.69,2.58,4.13-.02,2.31-4.16,4.74-8.26,7.11-12.38.16.15.36.24.57.28.04.58.08,1.16.12,1.74-1.37,4.43-5.7,7.67-4.95,13.08.21,1.52-2.44,1.04-3.72,1.66-1.4.67-3.42.62-3.87-.97-.95-3.43-4.1-6.05-3.62-9.95Z"/>
    <path class="cls-4" d="M314.42,445.87c.7-1.11,1.35-2.33,2.94-1.13-.44,1.79-1.88.96-2.94,1.13Z"/>
    <path class="cls-6" d="M314.98,452.34c-.63-.43-1.68-1.06-1.08-1.7.5-.53,1.11.61,1.58,1.13-.16.2-.33.38-.5.57Z"/>
    <path class="cls-7" d="M287.91,372.92c8.06,5.57,15.56,5.95,22.63-1.57-3.6,10.48-14.51,11.36-22.63,1.57Z"/>
    <path class="cls-7" d="M254.51,324.11c8.19,6.1,12.31,6.01,22.27-.5-1.83,5.25-6.73,8.15-13.01,7.7-5.03-.36-8.41-3.05-9.18-7.32l-.08.12Z"/>
    <path class="cls-7" d="M243.67,319.84c-4.51,11.35-15.28,13.98-22.94,5.27,9.48,4.78,16.46,2.4,22.94-5.27Z"/>
    <path class="cls-7" d="M306.94,347.66c-1.88,4.66-5.62,6.48-10.31,6.66-5.75.22-9.17-3.1-11.69-8.14,7.05,6.25,14.22,7.61,22,1.48Z"/>
    <path class="cls-7" d="M224.92,347.06c7.65,5.65,14.94,6.1,22.6-1.73-4.63,10.91-15.34,11.34-22.6,1.73Z"/>
    <path class="cls-7" d="M289.11,322.21c6.39,5.27,13.04,7.72,21.65,2.16-6.25,8.91-16.28,7.46-21.65-2.16Z"/>
    <path class="cls-7" d="M254.43,344.96c5.66,6.87,12.44,8.72,21,3.66-2.23,4.5-5.91,6.2-10.86,5.72-5.02-.49-8.75-3.95-10.01-9.3l-.12-.08Z"/>
    <path class="cls-7" d="M245.76,372.54c-5.39,9.46-16.07,10.01-22.01,1.13q11.76,3.4,22.01-1.13Z"/>
    <path class="cls-7" d="M254.51,371.02c5.93,5.84,12.47,8.7,21.33,2.73-2.85,5.13-6.78,6.88-11.45,6.19-4.74-.7-8.68-4.33-9.79-9.03l-.09.11Z"/>
    <path class="cls-7" d="M199.3,351.4c10.94.85,11.85.57,19.24-5.91-2.29,8.88-12.03,11.8-19.31,5.8l.07.11Z"/>
    <path class="cls-7" d="M314.34,345.96c7.11,6.12,9.21,6.78,18.13,5.31-2.73,3.7-6.13,3.44-9.37,2.91-4.6-.75-7.74-3.34-8.64-8.14l-.13-.08Z"/>
    <path class="cls-7" d="M253.45,323.16c-.06-.14-.12-.28-.18-.43l-.27.25c.11.1.23.19.34.29,0,0,.11-.11.11-.11Z"/>
    <path class="cls-7" d="M254.6,370.91l-.76-.02c.4-.76.44.09.66.14,0,0,.1-.11.1-.11Z"/>
    <path class="cls-7" d="M254.6,324c-1.15.77-.9-.38-1.15-.84,0,0-.11.11-.11.11.39.29.78.57,1.17.85,0,0,.09-.12.09-.12Z"/>
    <path class="cls-7" d="M254.55,345.03l-.25.08s.14-.15.14-.15c0,0,.11.07.11.07Z"/>
    <path class="cls-7" d="M314.47,346.04l-.19.09s.08-.15.07-.16c0,0,.12.07.12.07Z"/>
    <polygon class="cls-7" points="199.23 351.29 199.34 351.12 199.3 351.4 199.23 351.29"/>
    <path class="cls-4" d="M352.58,208.66c-.08,18.18-15.39,32.84-34.26,32.81-17.05-.03-31.11-14.06-31.04-31,.07-18.7,15.02-33.91,33.26-33.85,17.44.06,32.12,14.74,32.05,32.03ZM308.26,197.58c-.63-2.7-1.93-5.48-5.8-5.46-3.71.02-7.35,3.59-7.17,6.71.23,3.98,2.55,5.69,6.35,5.74,3.74.05,6.67-2.8,6.62-6.99ZM338.51,204.88c2.83-.2,4.8-2.09,5.19-5.18.36-2.87-4.1-7.21-7.12-7.15-3.76.08-5.85,2.25-6.03,5.88-.17,3.43,3.62,6.52,7.96,6.45ZM335.19,220.64c-3.75.95-6.01,2.97-8.34,4.71-3.39,2.53-7.33,2.96-10.82,1.8-3.6-1.19-7.7-1.86-10.53-4.94-.62-.68-1.48-1.81-2.44-1-1.21,1.02-.19,2.1.58,2.95,9.39,10.36,23.78,9.79,31.55-3.53ZM306.28,233.06c9.48,7.49,33.09,1.34,33.47-7.79-12.41,9.42-14.38,10.98-33.47,7.79ZM305.19,231.52c-5.66-3.65-7.95-9.74-11.41-15.6-.23,6.75,5.57,14.7,11.41,15.6Z"/>
    <path class="cls-2" d="M276.45,263.54c-.22-.04-.41-.13-.57-.28,2.28-5.65,4.55-11.3,6.82-16.95,2.21,2.07,4.42,4.14,6.63,6.22-7.41-1.41-7.68-1.23-9,6.79-.38,2.32-1.12,4.15-3.88,4.22Z"/>
    <path class="cls-4" d="M182.09,208.98c.15-17.18,15.7-32.55,32.71-32.33,17.73.22,32.82,15.38,32.7,32.84-.12,17.84-15.51,32.16-34.38,31.97-16.93-.16-31.19-15.09-31.04-32.48ZM197.44,229.48l-.42-.2c.13.08.26.16.39.23,7.19,8.97,25.43,9.53,33.04,1.02,1.73-.47,3.71-.69,3.81-3.51-2.31.49-3.68,1.33-3.88,3.43-4.95.62-9.19,3.49-14.22,4.16-7.12.94-12.8-2.26-18.71-5.14ZM203.42,225.51c-.11-.07-.22-.13-.33-.2l.34.18c4.73,6.71,13.91,7.56,20.89,1.94,2.59-.66,4.98-1.6,5.83-4.47.07-.24-.61-1-.79-.95-2.39.61-4.77,1.3-5.97,3.79-6.7,2.44-13.35,1.7-19.98-.28ZM197.16,204.63c4.08.11,7.26-2.72,7.21-6.51-.06-3.62-2.63-5.34-5.58-6.07-2.87-.71-8.29,4.1-7.95,6.9.43,3.53,2.52,5.66,6.32,5.68ZM234.62,204.58c3.5-.15,5.6-2.06,5.71-5.47.11-3.16-4.63-6.64-8.16-6.55-3.73.1-4.63,2.68-4.78,5.59-.2,3.86,2.93,6.5,7.23,6.43Z"/>
    <path class="cls-1" d="M308.26,197.58c.05,4.19-2.87,7.03-6.62,6.99-3.81-.05-6.13-1.76-6.35-5.74-.18-3.12,3.46-6.69,7.17-6.71,3.87-.02,5.17,2.76,5.8,5.46Z"/>
    <path class="cls-1" d="M338.51,204.88c-4.34.07-8.13-3.02-7.96-6.45.18-3.63,2.28-5.8,6.03-5.88,3.02-.06,7.48,4.28,7.12,7.15-.39,3.09-2.36,4.98-5.19,5.18Z"/>
    <path class="cls-2" d="M335.19,220.64c-7.77,13.31-22.16,13.88-31.55,3.53-.77-.85-1.79-1.93-.58-2.95.96-.81,1.82.32,2.44,1,2.83,3.08,6.93,3.75,10.53,4.94,3.49,1.15,7.43.73,10.82-1.8,2.33-1.74,4.6-3.76,8.34-4.71Z"/>
    <path class="cls-2" d="M306.28,233.06c19.08,3.18,21.06,1.62,33.47-7.79-.37,9.13-23.98,15.29-33.47,7.79Z"/>
    <path class="cls-2" d="M305.19,231.52c-5.84-.9-11.64-8.85-11.41-15.6,3.46,5.86,5.75,11.96,11.41,15.6Z"/>
    <path class="cls-1" d="M197.16,204.63c-3.79-.02-5.89-2.16-6.31-5.68-.34-2.79,5.08-7.61,7.95-6.9,2.94.73,5.52,2.45,5.58,6.07.06,3.78-3.12,6.62-7.21,6.51Z"/>
    <path class="cls-1" d="M234.62,204.58c-4.3.06-7.42-2.57-7.23-6.43.15-2.91,1.05-5.49,4.78-5.59,3.53-.09,8.27,3.39,8.16,6.55-.12,3.41-2.22,5.32-5.71,5.47Z"/>
    <path class="cls-7" d="M224.33,227.43c-6.98,5.62-16.16,4.77-20.89-1.94l-.02.02c6.63,1.99,13.28,2.72,19.98.28.31.54.62,1.09.93,1.64Z"/>
    <path class="cls-2" d="M230.45,230.53c-7.61,8.52-25.85,7.95-33.04-1.02l.03-.03c5.91,2.87,11.59,6.08,18.71,5.14,5.03-.67,9.27-3.54,14.22-4.16l.08.08Z"/>
    <path class="cls-2" d="M224.33,227.43c-.31-.55-.62-1.09-.93-1.64,1.21-2.48,3.58-3.18,5.97-3.79.19-.05.86.72.79.95-.85,2.87-3.24,3.81-5.83,4.47Z"/>
    <path class="cls-2" d="M230.37,230.45c.2-2.11,1.57-2.94,3.88-3.43-.1,2.82-2.08,3.04-3.8,3.51,0,0-.08-.08-.08-.08Z"/>
    <path class="cls-7" d="M203.44,225.5l-.34-.18c.11.07.22.13.33.2,0,0,.02-.02.02-.02Z"/>
    <path class="cls-2" d="M197.41,229.51c-.13-.08-.26-.16-.39-.23.14.07.28.13.42.2,0,0-.03.03-.03.03Z"/>
  </g>
</svg>